<svg width="80" height="80" viewBox="0 0 80 80" fill="none" xmlns="http://www.w3.org/2000/svg">

<path fill-rule="evenodd" clip-rule="evenodd" d="M75.8109 9.30211L68.8774 31.1363L48.8637 11.1226L70.6979 4.18914C73.7874 3.20807 76.7919 6.21263 75.8109 9.30211ZM70.7453 15.3039L67.4786 25.5913L54.4087 12.5214L64.6961 9.2547C65.2966 10.5306 66.1328 11.7363 67.1983 12.8017C68.2637 13.8672 69.4694 14.7034 70.7453 15.3039ZM71.6458 12.4681L72.9653 8.31298C73.2105 7.54061 72.4594 6.78946 71.687 7.03473L67.5319 8.35418C67.9675 9.20002 68.5473 10.0046 69.2713 10.7287C69.9954 11.4527 70.8 12.0325 71.6458 12.4681Z" fill="white"/>
<path d="M68.8774 31.1363L47.4077 52.606C46.6444 53.3693 45.3856 53.3481 44.5961 52.5585L27.4415 35.4039C26.652 34.6144 26.6307 33.3556 27.394 32.5923L48.8637 11.1226L68.8774 31.1363Z" fill="white"/>
<path d="M14.059 14.4771C22.6841 5.85196 34.8244 2.7924 46.1831 5.22579L36.9763 14.4326C31.185 14.8678 25.5724 17.2592 21.2068 21.6249C14.846 27.9856 12.6763 36.9934 14.6419 45.3444L22.1828 37.8034C23.3278 36.6585 25.216 36.6904 26.4002 37.8747C27.5845 39.059 27.6164 40.9472 26.4715 42.0921L12.651 55.9126C11.5061 57.0575 9.61791 57.0256 8.43363 55.8413C8.18301 55.5907 7.98399 55.3085 7.83682 55.0086L7.75235 55.093C1.17318 41.6837 3.22747 25.3086 14.059 14.4771Z" fill="white"/>
<path d="M24.907 72.2477C38.3163 78.8268 54.6914 76.7725 65.5229 65.941C74.148 57.3159 77.2076 45.1756 74.7742 33.8169L65.5674 43.0237C65.1322 48.815 62.7408 54.4276 58.3752 58.7932C52.0144 65.154 43.0066 67.3237 34.6556 65.3581L42.1966 57.8172C43.3415 56.6722 43.3096 54.784 42.1253 53.5998C40.941 52.4155 39.0528 52.3836 37.9079 53.5285L24.0875 67.349C22.9425 68.4939 22.9744 70.3821 24.1587 71.5664C24.4093 71.817 24.6915 72.016 24.9914 72.1632L24.907 72.2477Z" fill="white"/>
<path d="M33.9457 46.0543C35.13 47.2386 35.1619 49.1267 34.017 50.2717L14.6683 69.6203C13.5234 70.7652 11.6352 70.7333 10.4509 69.5491C9.26666 68.3648 9.23476 66.4766 10.3797 65.3317L29.7283 45.983C30.8733 44.8381 32.7615 44.87 33.9457 46.0543Z" fill="white"/>
</svg>
