<svg width="278" height="80" viewBox="0 0 278 80" fill="none" xmlns="http://www.w3.org/2000/svg">
<path d="M106.64 21.768V58H98.8V21.768H106.64ZM119.696 58H112.192V30.672H119.024V32.072C120.181 30.7653 121.936 30.112 124.288 30.112H125.464C130.093 30.112 132.408 32.576 132.408 37.504V58H124.904V36.608C124.904 36.3093 124.792 36.048 124.568 35.824C124.381 35.6 124.139 35.488 123.84 35.488H120.76C120.461 35.488 120.2 35.6 119.976 35.824C119.789 36.048 119.696 36.3093 119.696 36.608V58ZM150.392 40.864C155.022 40.864 157.336 43.328 157.336 48.256V51.168C157.336 56.096 155.022 58.56 150.392 58.56H144.176C139.547 58.56 137.232 56.096 137.232 51.168V49.432H144.176V51.896C144.176 52.1947 144.27 52.456 144.456 52.68C144.68 52.904 144.942 53.016 145.24 53.016H149.832C150.131 53.016 150.374 52.904 150.56 52.68C150.784 52.456 150.896 52.1947 150.896 51.896V48.536C150.896 48.2373 150.784 47.976 150.56 47.752C150.374 47.528 150.131 47.416 149.832 47.416H144.064C139.435 47.416 137.12 44.952 137.12 40.024V37.504C137.12 32.576 139.435 30.112 144.064 30.112H149.944C154.574 30.112 156.888 32.576 156.888 37.504V38.512H149.944V36.776C149.944 36.4773 149.832 36.216 149.608 35.992C149.422 35.768 149.179 35.656 148.88 35.656H144.624C144.326 35.656 144.064 35.768 143.84 35.992C143.654 36.216 143.56 36.4773 143.56 36.776V39.744C143.56 40.0427 143.654 40.304 143.84 40.528C144.064 40.752 144.326 40.864 144.624 40.864H150.392ZM181.955 41.424H174.451V36.608C174.451 36.3093 174.339 36.048 174.115 35.824C173.928 35.6 173.685 35.488 173.387 35.488H170.307C170.008 35.488 169.747 35.6 169.523 35.824C169.336 36.048 169.243 36.3093 169.243 36.608V52.064C169.243 52.3627 169.336 52.624 169.523 52.848C169.747 53.072 170.008 53.184 170.307 53.184H173.387C173.685 53.184 173.928 53.072 174.115 52.848C174.339 52.624 174.451 52.3627 174.451 52.064V47.248H181.955V51.168C181.955 56.096 179.64 58.56 175.011 58.56H168.683C164.053 58.56 161.739 56.096 161.739 51.168V37.504C161.739 32.576 164.053 30.112 168.683 30.112H175.011C179.64 30.112 181.955 32.576 181.955 37.504V41.424ZM198.379 30.112H199.835V37.392H196.139C194.87 37.392 194.235 38.0453 194.235 39.352V58H186.731V30.672H193.563V33.304C194.646 31.176 196.251 30.112 198.379 30.112ZM210.808 27.256C210.024 28.04 209.072 28.432 207.952 28.432C206.832 28.432 205.861 28.04 205.04 27.256C204.219 26.4347 203.808 25.464 203.808 24.344C203.808 23.1867 204.219 22.216 205.04 21.432C205.861 20.6107 206.832 20.2 207.952 20.2C209.072 20.2 210.024 20.6107 210.808 21.432C211.629 22.216 212.04 23.1867 212.04 24.344C212.04 25.5013 211.629 26.472 210.808 27.256ZM204.2 58V30.672H211.704V58H204.2ZM229.069 30.112H230.245C234.874 30.112 237.189 32.576 237.189 37.504V51.168C237.189 56.096 234.874 58.56 230.245 58.56H229.069C226.381 58.56 224.458 57.7013 223.301 55.984V58H216.973V21.768H224.477V31.456C225.672 30.56 227.202 30.112 229.069 30.112ZM224.477 36.608V52.064C224.477 52.3627 224.57 52.624 224.757 52.848C224.981 53.072 225.242 53.184 225.541 53.184H228.621C228.92 53.184 229.162 53.072 229.349 52.848C229.573 52.624 229.685 52.3627 229.685 52.064V36.608C229.685 36.3093 229.573 36.048 229.349 35.824C229.162 35.6 228.92 35.488 228.621 35.488H225.541C225.242 35.488 224.981 35.6 224.757 35.824C224.57 36.048 224.477 36.3093 224.477 36.608ZM249.797 58H242.293V21.768H249.797V58ZM267.529 30.672H275.033V60.072C275.033 65 272.718 67.464 268.089 67.464H262.489C257.86 67.464 255.545 65 255.545 60.072V59.176H262.825V60.968C262.825 61.2667 262.918 61.528 263.105 61.752C263.329 61.976 263.59 62.088 263.889 62.088H266.465C266.764 62.088 267.006 61.976 267.193 61.752C267.417 61.528 267.529 61.2667 267.529 60.968V55.424C266.409 56.32 264.878 56.768 262.937 56.768H261.761C257.132 56.768 254.817 54.304 254.817 49.376V30.672H262.321V50.272C262.321 50.5707 262.414 50.832 262.601 51.056C262.825 51.28 263.086 51.392 263.385 51.392H266.465C266.764 51.392 267.006 51.28 267.193 51.056C267.417 50.832 267.529 50.5707 267.529 50.272V30.672Z" fill="white"/>
<path fill-rule="evenodd" clip-rule="evenodd" d="M75.8109 9.30211L68.8774 31.1363L48.8637 11.1226L70.6979 4.18914C73.7874 3.20807 76.7919 6.21263 75.8109 9.30211ZM70.7453 15.3039L67.4786 25.5913L54.4087 12.5214L64.6961 9.2547C65.2966 10.5306 66.1328 11.7363 67.1983 12.8017C68.2637 13.8672 69.4694 14.7034 70.7453 15.3039ZM71.6458 12.4681L72.9653 8.31298C73.2105 7.54061 72.4594 6.78946 71.687 7.03473L67.5319 8.35418C67.9675 9.20002 68.5473 10.0046 69.2713 10.7287C69.9954 11.4527 70.8 12.0325 71.6458 12.4681Z" fill="white"/>
<path d="M68.8774 31.1363L47.4077 52.606C46.6444 53.3693 45.3856 53.3481 44.5961 52.5585L27.4415 35.4039C26.652 34.6144 26.6307 33.3556 27.394 32.5923L48.8637 11.1226L68.8774 31.1363Z" fill="white"/>
<path d="M14.059 14.4771C22.6841 5.85196 34.8244 2.7924 46.1831 5.22579L36.9763 14.4326C31.185 14.8678 25.5724 17.2592 21.2068 21.6249C14.846 27.9856 12.6763 36.9934 14.6419 45.3444L22.1828 37.8034C23.3278 36.6585 25.216 36.6904 26.4002 37.8747C27.5845 39.059 27.6164 40.9472 26.4715 42.0921L12.651 55.9126C11.5061 57.0575 9.61791 57.0256 8.43363 55.8413C8.18301 55.5907 7.98399 55.3085 7.83682 55.0086L7.75235 55.093C1.17318 41.6837 3.22747 25.3086 14.059 14.4771Z" fill="white"/>
<path d="M24.907 72.2477C38.3163 78.8268 54.6914 76.7725 65.5229 65.941C74.148 57.3159 77.2076 45.1756 74.7742 33.8169L65.5674 43.0237C65.1322 48.815 62.7408 54.4276 58.3752 58.7932C52.0144 65.154 43.0066 67.3237 34.6556 65.3581L42.1966 57.8172C43.3415 56.6722 43.3096 54.784 42.1253 53.5998C40.941 52.4155 39.0528 52.3836 37.9079 53.5285L24.0875 67.349C22.9425 68.4939 22.9744 70.3821 24.1587 71.5664C24.4093 71.817 24.6915 72.016 24.9914 72.1632L24.907 72.2477Z" fill="white"/>
<path d="M33.9457 46.0543C35.13 47.2386 35.1619 49.1267 34.017 50.2717L14.6683 69.6203C13.5234 70.7652 11.6352 70.7333 10.4509 69.5491C9.26666 68.3648 9.23476 66.4766 10.3797 65.3317L29.7283 45.983C30.8733 44.8381 32.7615 44.87 33.9457 46.0543Z" fill="white"/>
</svg>
