<svg width="182" height="59" viewBox="0 0 182 59" fill="none" xmlns="http://www.w3.org/2000/svg">
<path d="M10.64 11.768V48H2.8V11.768H10.64ZM23.6959 48H16.1919V20.672H23.0239V22.072C24.1812 20.7653 25.9359 20.112 28.2879 20.112H29.4639C34.0932 20.112 36.4079 22.576 36.4079 27.504V48H28.9039V26.608C28.9039 26.3093 28.7919 26.048 28.5679 25.824C28.3812 25.6 28.1385 25.488 27.8399 25.488H24.7599C24.4612 25.488 24.1999 25.6 23.9759 25.824C23.7892 26.048 23.6959 26.3093 23.6959 26.608V48ZM54.3922 30.864C59.0215 30.864 61.3362 33.328 61.3362 38.256V41.168C61.3362 46.096 59.0215 48.56 54.3922 48.56H48.1762C43.5469 48.56 41.2322 46.096 41.2322 41.168V39.432H48.1762V41.896C48.1762 42.1947 48.2695 42.456 48.4562 42.68C48.6802 42.904 48.9415 43.016 49.2402 43.016H53.8322C54.1309 43.016 54.3735 42.904 54.5602 42.68C54.7842 42.456 54.8962 42.1947 54.8962 41.896V38.536C54.8962 38.2373 54.7842 37.976 54.5602 37.752C54.3735 37.528 54.1309 37.416 53.8322 37.416H48.0642C43.4349 37.416 41.1202 34.952 41.1202 30.024V27.504C41.1202 22.576 43.4349 20.112 48.0642 20.112H53.9442C58.5735 20.112 60.8882 22.576 60.8882 27.504V28.512H53.9442V26.776C53.9442 26.4773 53.8322 26.216 53.6082 25.992C53.4215 25.768 53.1789 25.656 52.8802 25.656H48.6242C48.3255 25.656 48.0642 25.768 47.8402 25.992C47.6535 26.216 47.5602 26.4773 47.5602 26.776V29.744C47.5602 30.0427 47.6535 30.304 47.8402 30.528C48.0642 30.752 48.3255 30.864 48.6242 30.864H54.3922ZM85.9548 31.424H78.4508V26.608C78.4508 26.3093 78.3388 26.048 78.1148 25.824C77.9281 25.6 77.6854 25.488 77.3868 25.488H74.3068C74.0081 25.488 73.7468 25.6 73.5228 25.824C73.3361 26.048 73.2428 26.3093 73.2428 26.608V42.064C73.2428 42.3627 73.3361 42.624 73.5228 42.848C73.7468 43.072 74.0081 43.184 74.3068 43.184H77.3868C77.6854 43.184 77.9281 43.072 78.1148 42.848C78.3388 42.624 78.4508 42.3627 78.4508 42.064V37.248H85.9548V41.168C85.9548 46.096 83.6401 48.56 79.0108 48.56H72.6828C68.0534 48.56 65.7388 46.096 65.7388 41.168V27.504C65.7388 22.576 68.0534 20.112 72.6828 20.112H79.0108C83.6401 20.112 85.9548 22.576 85.9548 27.504V31.424ZM102.379 20.112H103.835V27.392H100.139C98.8696 27.392 98.2349 28.0453 98.2349 29.352V48H90.7309V20.672H97.5629V23.304C98.6456 21.176 100.251 20.112 102.379 20.112ZM114.808 17.256C114.024 18.04 113.072 18.432 111.952 18.432C110.832 18.432 109.861 18.04 109.04 17.256C108.219 16.4347 107.808 15.464 107.808 14.344C107.808 13.1867 108.219 12.216 109.04 11.432C109.861 10.6107 110.832 10.2 111.952 10.2C113.072 10.2 114.024 10.6107 114.808 11.432C115.629 12.216 116.04 13.1867 116.04 14.344C116.04 15.5013 115.629 16.472 114.808 17.256ZM108.2 48V20.672H115.704V48H108.2ZM133.069 20.112H134.245C138.874 20.112 141.189 22.576 141.189 27.504V41.168C141.189 46.096 138.874 48.56 134.245 48.56H133.069C130.381 48.56 128.458 47.7013 127.301 45.984V48H120.973V11.768H128.477V21.456C129.672 20.56 131.202 20.112 133.069 20.112ZM128.477 26.608V42.064C128.477 42.3627 128.57 42.624 128.757 42.848C128.981 43.072 129.242 43.184 129.541 43.184H132.621C132.92 43.184 133.162 43.072 133.349 42.848C133.573 42.624 133.685 42.3627 133.685 42.064V26.608C133.685 26.3093 133.573 26.048 133.349 25.824C133.162 25.6 132.92 25.488 132.621 25.488H129.541C129.242 25.488 128.981 25.6 128.757 25.824C128.57 26.048 128.477 26.3093 128.477 26.608ZM153.797 48H146.293V11.768H153.797V48ZM171.529 20.672H179.033V50.072C179.033 55 176.718 57.464 172.089 57.464H166.489C161.86 57.464 159.545 55 159.545 50.072V49.176H166.825V50.968C166.825 51.2667 166.918 51.528 167.105 51.752C167.329 51.976 167.59 52.088 167.889 52.088H170.465C170.764 52.088 171.006 51.976 171.193 51.752C171.417 51.528 171.529 51.2667 171.529 50.968V45.424C170.409 46.32 168.878 46.768 166.937 46.768H165.761C161.132 46.768 158.817 44.304 158.817 39.376V20.672H166.321V40.272C166.321 40.5707 166.414 40.832 166.601 41.056C166.825 41.28 167.086 41.392 167.385 41.392H170.465C170.764 41.392 171.006 41.28 171.193 41.056C171.417 40.832 171.529 40.5707 171.529 40.272V20.672Z" fill="#8E44AD"/>
</svg>
